<svg xmlns="http://www.w3.org/2000/svg" version="1.1" xmlns:xlink="http://www.w3.org/1999/xlink" xmlns:svgjs="http://svgjs.dev/svgjs" width="1000" height="93" viewBox="0 0 1000 93"><g transform="matrix(1,0,0,1,-0.606051067133194,0.619233752842085)"><svg viewBox="0 0 396 37" data-background-color="#111111" preserveAspectRatio="xMidYMid meet" height="93" width="1000" xmlns="http://www.w3.org/2000/svg" xmlns:xlink="http://www.w3.org/1999/xlink"><defs></defs><g id="tight-bounds" transform="matrix(1,0,0,1,0.23999622258475029,-0.2463618156468499)"><svg viewBox="0 0 395.52 37.492723631293686" height="37.492723631293686" width="395.52"><g><svg viewBox="0 0 575.2145681408809 54.5266" height="37.492723631293686" width="395.52"><g><svg viewBox="0 0 575.2145681408809 54.5266" height="54.5266" width="575.2145681408809"><g><svg viewBox="0 0 575.2145681408809 54.5266" height="54.5266" width="575.2145681408809"><g><svg viewBox="0 0 575.2145681408809 54.5266" height="54.5266" width="575.2145681408809"><g><svg><g></g><g></g></svg></g><g><svg><g></g><g><svg></svg></g></svg></g><g id="text-0"><svg viewBox="0 0 575.2145681408809 54.5266" height="54.5266" width="575.2145681408809"><g transform="matrix(1,0,0,1,0,10.4133)"><svg width="117.65" viewBox="3.25 -33.70000076293945 117.63999938964844 33.70000076293945" height="33.7" data-palette-color="#f5f5f5"><path d="M10.95-13.95L10.95 0 3.25 0 3.25-33.7 11.7-33.7 19.55-19.75Q21.2-16.8 22.43-14.23 23.65-11.65 24-10.6L24-10.6 24.4-9.5Q23.9-13.2 23.9-19.75L23.9-19.75 23.9-33.7 31.6-33.7 31.6 0 23.15 0 15.1-13.95Q13.5-16.65 12.28-19.28 11.05-21.9 10.6-23.15L10.6-23.15 10.2-24.4Q10.95-19.9 10.95-13.95L10.95-13.95ZM59.05-6.15L59.05 0 38.1 0 38.1-33.7 58.85-33.7 58.85-27.55 45.85-27.55 45.85-19.9 57.45-19.9 57.45-13.8 45.85-13.8 45.85-6.15 59.05-6.15ZM78.6-10.5L72.7 0 63.4 0 74.05-17.1 63.9-33.7 72.85-33.7 78.45-23.85 83.8-33.7 93.2-33.7 83-17.05 93.85 0 84.7 0 78.6-10.5ZM120.89-33.7L120.89-27.5 112.69-27.5 112.69 0 104.94 0 104.94-27.5 96.69-27.5 96.69-33.7 120.89-33.7Z" opacity="1" transform="matrix(1,0,0,1,0,0)" fill="#f5f5f5" class="undefined-s-0"></path></svg></g><g><svg xmlns="http://www.w3.org/2000/svg" xmlns:xlink="http://www.w3.org/1999/xlink" version="1.1" x="130.5234" y="0" viewBox="45.59999465942383 20 208.69850158691406 260" enable-background="new 0 0 300 300" xml:space="preserve" height="54.5266" width="43.76776814088088" class="icon-x-0" data-fill-palette-color="accent" id="x-0"><path d="M253.2 116.8c-0.4-0.4-0.8-0.8-1.2-1.1 0.2-1.3 0.4-2.6 0.4-4 0-9.3-5.7-17.5-14.1-20.9-1.1-7.3-5.6-13.5-12.2-16.8C223.9 63.7 214.8 56 203.9 56c-0.3 0-0.5 0-0.8 0-1.1-8-6.6-14.9-14.1-17.8C187.1 27.7 178 20 167 20c-7.3 0-14 3.5-18.2 9.2-7.6-0.1-14.6 3.6-18.8 9.7-1.5-0.3-3-0.5-4.6-0.5-7 0-13.5 3.2-17.7 8.6-1.2-0.2-2.3-0.3-3.5-0.3-11.5 0-21 8.6-22.4 19.7-9.1 1.6-16.3 8.7-18.2 17.7-10.3 2.1-18 11.2-18 22.1 0 3.7 0.9 7.3 2.6 10.5 0 0-0.1 0.1-0.1 0.1-0.9 1.2-1.3 2.7-1 4.1l31 155c0 0 0 0 0 0 0 0.1 0 0.1 0.1 0.2 0.1 0.2 0.1 0.5 0.2 0.7 0 0.1 0.1 0.2 0.1 0.3 0.1 0.2 0.2 0.4 0.3 0.5 0.1 0.1 0.1 0.2 0.2 0.3 0.1 0.2 0.2 0.3 0.4 0.4 0.1 0.1 0.2 0.2 0.3 0.3 0.1 0.1 0.3 0.2 0.4 0.3 0.1 0.1 0.2 0.1 0.3 0.2 0.2 0.1 0.3 0.2 0.5 0.3 0.1 0.1 0.2 0.1 0.3 0.2 0.2 0.1 0.4 0.1 0.6 0.2 0.1 0 0.2 0.1 0.3 0.1 0.3 0.1 0.6 0.1 0.9 0.1 0 0 0 0 0 0h2.6H116h33 33 33c0 0 0 0 0 0 0 0 0 0 0 0h2.2c2.4 0 4.4-1.7 4.9-4l32.1-155C254.5 119.5 254.1 118 253.2 116.8zM220 143.7l18.7-18.7h2l-1 4.9L220 149.5V143.7zM220 163.7l16-16-1.5 7.4L220 169.5V163.7zM220 183.7l10.8-10.8-1.5 7.4-9.3 9.3V183.7zM220 203.7l5.7-5.7-1.5 7.4-4.2 4.2V203.7zM220 223.7l0.5-0.5-0.5 2.6V223.7zM220 129.5V125h4.5L220 129.5zM68.3 93.7c2.8 0 5-2.2 5-5 0-6.9 5.6-12.5 12.5-12.5 0.2 0 0.4 0 0.6 0 1.5 0.1 2.9-0.4 4-1.5 1-1.1 1.5-2.5 1.4-4-0.1-0.5-0.1-1-0.1-1.4 0-6.9 5.6-12.5 12.5-12.5 1.4 0 2.8 0.2 4.1 0.7 2.3 0.8 4.9-0.2 6.1-2.4 2.2-4.1 6.4-6.6 11.1-6.6 1.7 0 3.4 0.3 4.9 1 1.2 0.5 2.6 0.6 3.8 0.1 1.2-0.5 2.2-1.5 2.8-2.7 2-4.6 6.5-7.6 11.5-7.6 0.6 0 1.3 0.1 2 0.2 2.1 0.4 4.3-0.7 5.3-2.6 2.2-4.2 6.4-6.8 11.1-6.8 6.8 0 12.3 5.3 12.5 12.2 0.1 2.3 1.7 4.3 4 4.7 5.7 1.2 9.9 6.4 9.9 12.3 0 0.6-0.1 1.3-0.2 2-0.3 1.7 0.3 3.5 1.7 4.7 1.3 1.1 3.2 1.5 4.9 0.9 1.4-0.5 2.8-0.7 4.1-0.7 6.6 0 12.1 5.2 12.5 11.8 0.1 2.1 1.5 3.8 3.4 4.5 5.1 1.7 8.6 6.5 8.6 11.8 0 0.1 0 0.3 0 0.4 0 2.4 1.7 4.4 4 4.9 5.7 1.2 9.9 6.4 9.9 12.3 0 1.1-0.2 2.2-0.4 3.2H215h-33-33-32.4c0 0 0 0 0 0H116 83 58.9c-0.2-0.5-0.4-0.9-0.7-1.3-1.6-2.2-2.5-4.7-2.5-7.5C55.7 99.3 61.3 93.7 68.3 93.7zM177 212.5l-23 23v-5.9l23-23V212.5zM177 192.5l-23 23v-5.9l23-23V192.5zM177 172.5l-23 23v-5.9l23-23V172.5zM177 152.5l-23 23v-5.9l23-23V152.5zM177 132.5l-23 23v-5.9l23-23V132.5zM154 135.5v-5.9l4.7-4.7h5.9L154 135.5zM154 249.7l23-23v5.9l-23 23V249.7zM177 270h-3.3l3.3-3.3V270zM93.7 270l17.3-17.3v5.8L99.5 270H93.7zM111 238.6l-23 23v-5.9l23-23V238.6zM111 218.5l-23 23v-5.9l23-23V218.5zM111 198.5l-23 23v-5.9l23-23V198.5zM111 178.5l-23 23v-5.9l23-23V178.5zM111 158.5l-23 23v-5.9l23-23V158.5zM111 138.5l-23 23v-5.9l23-23V138.5zM88 141.5v-5.9L98.7 125h5.9L88 141.5zM78 213.7l-1.9-9.2c0 0 0-0.1 0-0.1L59.6 125H78V213.7zM121 241c0-0.3 0-0.6 0-0.8V221v-20-76h23v43 20 82h-23V241zM154 269.7l23-23v5.9L159.5 270H154V269.7zM187 125h23v145h-23V125zM100.3 89.2c0-0.6 0-1.3 0-2 0.1-0.7 0.2-1.4 0.4-2.2 0.3-1.5 1-3 1.9-4.4 0.9-1.4 2.1-2.8 3.6-3.9 0.7-0.5 1.5-1.1 2.3-1.5 0.4-0.2 0.8-0.4 1.3-0.6l0.6-0.3 0.3-0.1 0.2-0.1 0.1 0 0 0 0 0 0.3-0.1 1-0.3c0.2 0 0.3-0.1 0.6-0.1l0.8-0.1c1.1-0.2 2-0.2 2.9-0.2 1.8 0.1 3.6 0.4 5.2 1.1 1.6 0.6 3 1.5 4.2 2.5 0.6 0.5 1.1 1 1.6 1.5 0.5 0.5 0.9 1.1 1.2 1.6 0.3 0.6 0.6 1.1 0.9 1.6 0.2 0.5 0.4 1 0.6 1.5 0.1 0.5 0.2 0.9 0.3 1.4 0.1 0.4 0.1 0.8 0.1 1.2 0.1 0.7-0.1 1.3-0.1 1.6 0 0.4-0.1 0.6-0.1 0.6s-0.2-0.1-0.4-0.4c-0.3-0.2-0.7-0.6-1.2-1-0.2-0.2-0.5-0.4-0.8-0.6-0.3-0.2-0.6-0.4-1-0.6-0.7-0.4-1.4-0.8-2.2-1.2-0.8-0.3-1.7-0.6-2.6-0.8-0.9-0.2-1.8-0.3-2.7-0.4-0.9-0.1-1.8 0-2.7 0.1-0.2 0-0.4 0.1-0.7 0.1-0.2 0-0.3 0.1-0.5 0.1l-0.2 0c0 0-0.1 0-0.2 0l-0.2 0.1-0.8 0.2 0 0 0 0-0.1 0-0.2 0.1-0.3 0.1c-0.2 0.1-0.4 0.2-0.6 0.3-0.4 0.2-0.8 0.4-1.2 0.6-0.8 0.5-1.5 0.9-2.2 1.5-0.7 0.6-1.4 1.2-1.9 1.9-0.6 0.7-1.1 1.4-1.6 2.2-0.4 0.8-0.8 1.5-1.1 2.3-0.1 0.4-0.3 0.7-0.4 1.1-0.1 0.3-0.2 0.6-0.3 0.9-0.2 0.6-0.3 1.2-0.4 1.5-0.1 0.4-0.1 0.6-0.1 0.6s-0.2-0.1-0.4-0.4c-0.1-0.1-0.3-0.3-0.5-0.5-0.2-0.2-0.4-0.4-0.6-0.7-0.2-0.3-0.4-0.6-0.6-1-0.2-0.4-0.4-0.8-0.6-1.3-0.2-0.5-0.3-1-0.4-1.6C100.4 90.5 100.4 89.9 100.3 89.2zM143.8 60.3c0-0.3-0.1-0.6 0-0.9 0-0.4 0.1-0.8 0.1-1.2 0.1-0.4 0.2-0.9 0.3-1.4 0.1-0.5 0.3-1 0.6-1.5 0.2-0.5 0.5-1 0.9-1.6 0.3-0.5 0.8-1.1 1.2-1.6 0.5-0.5 1-1.1 1.6-1.5 1.2-1 2.6-1.8 4.2-2.5 1.6-0.6 3.4-1 5.2-1.1 1.8-0.1 3.7 0.2 5.5 0.8l0.4 0.1 0.1 0 0.2 0.1 0.5 0.2c0.2 0.1 0.3 0.1 0.5 0.2l0.7 0.4c1 0.5 1.7 1 2.5 1.5 1.4 1.1 2.7 2.5 3.6 3.9 0.9 1.5 1.6 3 1.9 4.4 0.2 0.7 0.3 1.5 0.4 2.2 0 0.7 0.1 1.4 0 2-0.1 0.6-0.1 1.2-0.3 1.8-0.2 0.6-0.3 1.1-0.5 1.6-0.2 0.5-0.4 0.9-0.6 1.3-0.2 0.4-0.4 0.7-0.6 1-0.4 0.6-0.8 1-1 1.3-0.3 0.3-0.4 0.4-0.4 0.4s-0.1-0.2-0.1-0.6c-0.1-0.4-0.2-0.9-0.4-1.5-0.1-0.3-0.2-0.6-0.3-1-0.1-0.3-0.3-0.7-0.4-1.1-0.3-0.7-0.7-1.5-1.1-2.2-0.5-0.7-1-1.5-1.6-2.2-0.6-0.7-1.3-1.3-1.9-1.9-0.7-0.6-1.5-1.1-2.2-1.5-0.2-0.1-0.4-0.2-0.6-0.3-0.2-0.1-0.3-0.1-0.5-0.2l-0.2-0.1c0 0-0.1 0-0.2-0.1l-0.2-0.1-0.5-0.2-0.2-0.1-0.1 0c-0.8-0.2-1.7-0.5-2.5-0.6-0.9-0.1-1.8-0.2-2.7-0.1-0.9 0.1-1.8 0.2-2.7 0.4-0.9 0.2-1.7 0.5-2.6 0.8-0.8 0.4-1.6 0.7-2.2 1.2-0.3 0.2-0.6 0.4-1 0.6-0.3 0.2-0.6 0.4-0.8 0.6-0.5 0.3-0.9 0.8-1.2 1-0.3 0.2-0.4 0.4-0.4 0.4s0-0.2-0.1-0.6C143.9 60.8 143.8 60.6 143.8 60.3zM173.7 86.9c0.2-0.5 0.5-1 0.9-1.6 0.3-0.5 0.8-1.1 1.2-1.6 0.5-0.5 1-1.1 1.6-1.5 1.2-1 2.6-1.8 4.2-2.5 1.6-0.6 3.4-1 5.2-1.1 1.8-0.1 3.7 0.2 5.5 0.8l0.4 0.1 0.1 0 0.2 0.1 0.5 0.2c0.2 0.1 0.3 0.1 0.5 0.2l0.7 0.4c1 0.5 1.7 1 2.5 1.5 1.4 1.1 2.7 2.5 3.6 3.9 0.9 1.5 1.6 3 1.9 4.4 0.2 0.7 0.3 1.5 0.4 2.2 0 0.7 0.1 1.4 0 2-0.1 0.6-0.1 1.2-0.3 1.8-0.2 0.6-0.3 1.1-0.5 1.6-0.2 0.5-0.4 0.9-0.6 1.3-0.2 0.4-0.4 0.7-0.6 1-0.4 0.6-0.8 1-1 1.3-0.3 0.3-0.4 0.4-0.4 0.4s-0.1-0.2-0.1-0.6c-0.1-0.4-0.2-0.9-0.4-1.5-0.1-0.3-0.2-0.6-0.3-1-0.1-0.3-0.3-0.7-0.4-1.1-0.3-0.7-0.7-1.5-1.1-2.2-0.5-0.7-1-1.5-1.6-2.2-0.6-0.7-1.3-1.3-1.9-1.9-0.7-0.6-1.5-1.1-2.2-1.5-0.2-0.1-0.4-0.2-0.6-0.3-0.2-0.1-0.3-0.1-0.5-0.2l-0.2-0.1c0 0-0.1 0-0.2-0.1l-0.2-0.1-0.5-0.2-0.2-0.1-0.1 0c-0.8-0.2-1.7-0.5-2.5-0.6-0.9-0.1-1.8-0.2-2.7-0.1-0.9 0.1-1.8 0.2-2.7 0.4-0.9 0.2-1.7 0.5-2.6 0.8-0.8 0.4-1.6 0.7-2.2 1.2-0.3 0.2-0.6 0.4-1 0.6-0.3 0.2-0.6 0.4-0.8 0.6-0.5 0.3-0.9 0.8-1.2 1-0.3 0.2-0.4 0.4-0.4 0.4s0-0.2-0.1-0.6c0-0.2 0-0.4-0.1-0.7 0-0.3-0.1-0.6 0-0.9 0-0.4 0.1-0.8 0.1-1.2 0.1-0.4 0.2-0.9 0.3-1.4C173.3 87.9 173.5 87.4 173.7 86.9z" fill="#f5f5f5" data-fill-palette-color="accent"></path></svg></g><g transform="matrix(1,0,0,1,187.1645681408809,10.4133)"><svg width="388.05000000000007" viewBox="3.25 -33.70000076293945 388.0199890136719 33.70000076293945" height="33.7" data-palette-color="#f5f5f5"><path d="M24.2-6.15L24.2 0 3.25 0 3.25-33.7 24-33.7 24-27.55 11-27.55 11-19.9 22.6-19.9 22.6-13.8 11-13.8 11-6.15 24.2-6.15ZM38.15-13.95L38.15 0 30.45 0 30.45-33.7 38.9-33.7 46.75-19.75Q48.4-16.8 49.62-14.23 50.85-11.65 51.2-10.6L51.2-10.6 51.6-9.5Q51.1-13.2 51.1-19.75L51.1-19.75 51.1-33.7 58.8-33.7 58.8 0 50.35 0 42.3-13.95Q40.7-16.65 39.47-19.28 38.25-21.9 37.8-23.15L37.8-23.15 37.4-24.4Q38.15-19.9 38.15-13.95L38.15-13.95ZM87.75-33.7L87.75-27.5 79.55-27.5 79.55 0 71.8 0 71.8-27.5 63.55-27.5 63.55-33.7 87.75-33.7ZM113.44-6.15L113.44 0 92.49 0 92.49-33.7 113.24-33.7 113.24-27.55 100.24-27.55 100.24-19.9 111.84-19.9 111.84-13.8 100.24-13.8 100.24-6.15 113.44-6.15ZM131.19-27.45L131.19-27.45 127.39-27.45 127.39-17.95 131.04-17.95Q136.04-17.95 136.04-22.85L136.04-22.85Q136.04-25 134.74-26.23 133.44-27.45 131.19-27.45ZM127.39-11.7L127.39 0 119.69 0 119.69-33.7 131.34-33.7Q136.99-33.7 140.42-30.7 143.84-27.7 143.84-22.9L143.84-22.9Q143.84-15.7 137.69-12.95L137.69-12.95 146.24 0 137.04 0 129.74-11.7 127.39-11.7ZM172.84-33.7L172.84-27.5 164.64-27.5 164.64 0 156.89 0 156.89-27.5 148.64-27.5 148.64-33.7 172.84-33.7ZM187.79-14.3L187.79-14.3 187.44-13.1 195.54-13.1 195.19-14.3Q193.74-19.2 192.81-22.65 191.89-26.1 191.69-27.1L191.69-27.1 191.49-28.1Q191.09-25.35 187.79-14.3ZM185.59-6.9L183.54 0 175.49 0 186.74-33.7 196.44-33.7 207.69 0 199.44 0 197.39-6.9 185.59-6.9ZM220.28-33.7L220.28 0 212.58 0 212.58-33.7 220.28-33.7ZM234.98-13.95L234.98 0 227.28 0 227.28-33.7 235.73-33.7 243.58-19.75Q245.23-16.8 246.46-14.23 247.68-11.65 248.03-10.6L248.03-10.6 248.43-9.5Q247.93-13.2 247.93-19.75L247.93-19.75 247.93-33.7 255.63-33.7 255.63 0 247.18 0 239.13-13.95Q237.53-16.65 236.31-19.28 235.08-21.9 234.63-23.15L234.63-23.15 234.23-24.4Q234.98-19.9 234.98-13.95L234.98-13.95ZM270.13-13.05L269.08 0 261.38 0 264.28-33.7 272.73-33.7 277.43-21.5Q278.63-18.45 279.48-15.9 280.33-13.35 280.58-12.3L280.58-12.3 280.83-11.3Q281.63-14.6 284.33-21.5L284.33-21.5 289.08-33.7 297.53-33.7 301.03 0 293.33 0 292.08-13.05 291.43-22.9Q290.13-19.15 287.83-13.05L287.83-13.05 283.08-0.35 278.53-0.35 273.83-13.05Q272.68-16.15 271.88-18.6 271.08-21.05 270.83-22L270.83-22 270.58-22.9Q270.58-19.35 270.13-13.05L270.13-13.05ZM327.73-6.15L327.73 0 306.78 0 306.78-33.7 327.53-33.7 327.53-27.55 314.53-27.55 314.53-19.9 326.13-19.9 326.13-13.8 314.53-13.8 314.53-6.15 327.73-6.15ZM341.67-13.95L341.67 0 333.97 0 333.97-33.7 342.42-33.7 350.27-19.75Q351.92-16.8 353.15-14.23 354.37-11.65 354.72-10.6L354.72-10.6 355.12-9.5Q354.62-13.2 354.62-19.75L354.62-19.75 354.62-33.7 362.32-33.7 362.32 0 353.87 0 345.82-13.95Q344.22-16.65 343-19.28 341.77-21.9 341.32-23.15L341.32-23.15 340.92-24.4Q341.67-19.9 341.67-13.95L341.67-13.95ZM391.27-33.7L391.27-27.5 383.07-27.5 383.07 0 375.32 0 375.32-27.5 367.07-27.5 367.07-33.7 391.27-33.7Z" opacity="1" transform="matrix(1,0,0,1,0,0)" fill="#f5f5f5" class="undefined-s-1"></path></svg></g></svg></g></svg></g></svg></g></svg></g></svg></g></svg><rect width="395.52" height="37.492723631293686" fill="none" stroke="none" visibility="hidden"></rect></g></svg></g></svg>