<svg xmlns="http://www.w3.org/2000/svg" version="1.1" xmlns:xlink="http://www.w3.org/1999/xlink" xmlns:svgjs="http://svgjs.dev/svgjs" width="128" height="128" viewBox="0 0 128 128"><g transform="matrix(0.8046875,0,0,0.8046875,12.260097446173198,1.1518606496710504)"><svg viewBox="0 0 77 95" data-background-color="#111111" preserveAspectRatio="xMidYMid meet" height="157" width="128" xmlns="http://www.w3.org/2000/svg" xmlns:xlink="http://www.w3.org/1999/xlink"><defs></defs><g id="tight-bounds" transform="matrix(1,0,0,1,0.179344627618093,-0.24049999999999727)"><svg viewBox="0 0 76.64131074476381 95.481" height="95.481" width="76.64131074476381"><g><svg viewBox="0 0 76.64131074476381 95.481" height="95.481" width="76.64131074476381"><g><svg viewBox="0 0 76.64131074476381 95.481" height="95.481" width="76.64131074476381"><g><svg viewBox="0 0 76.64131074476381 95.481" height="95.481" width="76.64131074476381"><g><svg viewBox="0 0 76.64131074476381 95.481" height="95.481" width="76.64131074476381"><g><svg viewBox="0 0 76.64131074476381 95.481" height="95.481" width="76.64131074476381"><g><svg xmlns="http://www.w3.org/2000/svg" xmlns:xlink="http://www.w3.org/1999/xlink" version="1.1" x="0" y="0" viewBox="45.60000000000001 20 208.6984928272493 260" enable-background="new 0 0 300 300" xml:space="preserve" height="95.481" width="76.64131074476381" class="icon-icon-0" data-fill-palette-color="accent" id="icon-0"><path d="M253.2 116.8c-0.4-0.4-0.8-0.8-1.2-1.1 0.2-1.3 0.4-2.6 0.4-4 0-9.3-5.7-17.5-14.1-20.9-1.1-7.3-5.6-13.5-12.2-16.8C223.9 63.7 214.8 56 203.9 56c-0.3 0-0.5 0-0.8 0-1.1-8-6.6-14.9-14.1-17.8C187.1 27.7 178 20 167 20c-7.3 0-14 3.5-18.2 9.2-7.6-0.1-14.6 3.6-18.8 9.7-1.5-0.3-3-0.5-4.6-0.5-7 0-13.5 3.2-17.7 8.6-1.2-0.2-2.3-0.3-3.5-0.3-11.5 0-21 8.6-22.4 19.7-9.1 1.6-16.3 8.7-18.2 17.7-10.3 2.1-18 11.2-18 22.1 0 3.7 0.9 7.3 2.6 10.5 0 0-0.1 0.1-0.1 0.1-0.9 1.2-1.3 2.7-1 4.1l31 155c0 0 0 0 0 0 0 0.1 0 0.1 0.1 0.2 0.1 0.2 0.1 0.5 0.2 0.7 0 0.1 0.1 0.2 0.1 0.3 0.1 0.2 0.2 0.4 0.3 0.5 0.1 0.1 0.1 0.2 0.2 0.3 0.1 0.2 0.2 0.3 0.4 0.4 0.1 0.1 0.2 0.2 0.3 0.3 0.1 0.1 0.3 0.2 0.4 0.3 0.1 0.1 0.2 0.1 0.3 0.2 0.2 0.1 0.3 0.2 0.5 0.3 0.1 0.1 0.2 0.1 0.3 0.2 0.2 0.1 0.4 0.1 0.6 0.2 0.1 0 0.2 0.1 0.3 0.1 0.3 0.1 0.6 0.1 0.9 0.1 0 0 0 0 0 0h2.6H116h33 33 33c0 0 0 0 0 0 0 0 0 0 0 0h2.2c2.4 0 4.4-1.7 4.9-4l32.1-155C254.5 119.5 254.1 118 253.2 116.8zM220 143.7l18.7-18.7h2l-1 4.9L220 149.5V143.7zM220 163.7l16-16-1.5 7.4L220 169.5V163.7zM220 183.7l10.8-10.8-1.5 7.4-9.3 9.3V183.7zM220 203.7l5.7-5.7-1.5 7.4-4.2 4.2V203.7zM220 223.7l0.5-0.5-0.5 2.6V223.7zM220 129.5V125h4.5L220 129.5zM68.3 93.7c2.8 0 5-2.2 5-5 0-6.9 5.6-12.5 12.5-12.5 0.2 0 0.4 0 0.6 0 1.5 0.1 2.9-0.4 4-1.5 1-1.1 1.5-2.5 1.4-4-0.1-0.5-0.1-1-0.1-1.4 0-6.9 5.6-12.5 12.5-12.5 1.4 0 2.8 0.2 4.1 0.7 2.3 0.8 4.9-0.2 6.1-2.4 2.2-4.1 6.4-6.6 11.1-6.6 1.7 0 3.4 0.3 4.9 1 1.2 0.5 2.6 0.6 3.8 0.1 1.2-0.5 2.2-1.5 2.8-2.7 2-4.6 6.5-7.6 11.5-7.6 0.6 0 1.3 0.1 2 0.2 2.1 0.4 4.3-0.7 5.3-2.6 2.2-4.2 6.4-6.8 11.1-6.8 6.8 0 12.3 5.3 12.5 12.2 0.1 2.3 1.7 4.3 4 4.7 5.7 1.2 9.9 6.4 9.9 12.3 0 0.6-0.1 1.3-0.2 2-0.3 1.7 0.3 3.5 1.7 4.7 1.3 1.1 3.2 1.5 4.9 0.9 1.4-0.5 2.8-0.7 4.1-0.7 6.6 0 12.1 5.2 12.5 11.8 0.1 2.1 1.5 3.8 3.4 4.5 5.1 1.7 8.6 6.5 8.6 11.8 0 0.1 0 0.3 0 0.4 0 2.4 1.7 4.4 4 4.9 5.7 1.2 9.9 6.4 9.9 12.3 0 1.1-0.2 2.2-0.4 3.2H215h-33-33-32.4c0 0 0 0 0 0H116 83 58.9c-0.2-0.5-0.4-0.9-0.7-1.3-1.6-2.2-2.5-4.7-2.5-7.5C55.7 99.3 61.3 93.7 68.3 93.7zM177 212.5l-23 23v-5.9l23-23V212.5zM177 192.5l-23 23v-5.9l23-23V192.5zM177 172.5l-23 23v-5.9l23-23V172.5zM177 152.5l-23 23v-5.9l23-23V152.5zM177 132.5l-23 23v-5.9l23-23V132.5zM154 135.5v-5.9l4.7-4.7h5.9L154 135.5zM154 249.7l23-23v5.9l-23 23V249.7zM177 270h-3.3l3.3-3.3V270zM93.7 270l17.3-17.3v5.8L99.5 270H93.7zM111 238.6l-23 23v-5.9l23-23V238.6zM111 218.5l-23 23v-5.9l23-23V218.5zM111 198.5l-23 23v-5.9l23-23V198.5zM111 178.5l-23 23v-5.9l23-23V178.5zM111 158.5l-23 23v-5.9l23-23V158.5zM111 138.5l-23 23v-5.9l23-23V138.5zM88 141.5v-5.9L98.7 125h5.9L88 141.5zM78 213.7l-1.9-9.2c0 0 0-0.1 0-0.1L59.6 125H78V213.7zM121 241c0-0.3 0-0.6 0-0.8V221v-20-76h23v43 20 82h-23V241zM154 269.7l23-23v5.9L159.5 270H154V269.7zM187 125h23v145h-23V125zM100.3 89.2c0-0.6 0-1.3 0-2 0.1-0.7 0.2-1.4 0.4-2.2 0.3-1.5 1-3 1.9-4.4 0.9-1.4 2.1-2.8 3.6-3.9 0.7-0.5 1.5-1.1 2.3-1.5 0.4-0.2 0.8-0.4 1.3-0.6l0.6-0.3 0.3-0.1 0.2-0.1 0.1 0 0 0 0 0 0.3-0.1 1-0.3c0.2 0 0.3-0.1 0.6-0.1l0.8-0.1c1.1-0.2 2-0.2 2.9-0.2 1.8 0.1 3.6 0.4 5.2 1.1 1.6 0.6 3 1.5 4.2 2.5 0.6 0.5 1.1 1 1.6 1.5 0.5 0.5 0.9 1.1 1.2 1.6 0.3 0.6 0.6 1.1 0.9 1.6 0.2 0.5 0.4 1 0.6 1.5 0.1 0.5 0.2 0.9 0.3 1.4 0.1 0.4 0.1 0.8 0.1 1.2 0.1 0.7-0.1 1.3-0.1 1.6 0 0.4-0.1 0.6-0.1 0.6s-0.2-0.1-0.4-0.4c-0.3-0.2-0.7-0.6-1.2-1-0.2-0.2-0.5-0.4-0.8-0.6-0.3-0.2-0.6-0.4-1-0.6-0.7-0.4-1.4-0.8-2.2-1.2-0.8-0.3-1.7-0.6-2.6-0.8-0.9-0.2-1.8-0.3-2.7-0.4-0.9-0.1-1.8 0-2.7 0.1-0.2 0-0.4 0.1-0.7 0.1-0.2 0-0.3 0.1-0.5 0.1l-0.2 0c0 0-0.1 0-0.2 0l-0.2 0.1-0.8 0.2 0 0 0 0-0.1 0-0.2 0.1-0.3 0.1c-0.2 0.1-0.4 0.2-0.6 0.3-0.4 0.2-0.8 0.4-1.2 0.6-0.8 0.5-1.5 0.9-2.2 1.5-0.7 0.6-1.4 1.2-1.9 1.9-0.6 0.7-1.1 1.4-1.6 2.2-0.4 0.8-0.8 1.5-1.1 2.3-0.1 0.4-0.3 0.7-0.4 1.1-0.1 0.3-0.2 0.6-0.3 0.9-0.2 0.6-0.3 1.2-0.4 1.5-0.1 0.4-0.1 0.6-0.1 0.6s-0.2-0.1-0.4-0.4c-0.1-0.1-0.3-0.3-0.5-0.5-0.2-0.2-0.4-0.4-0.6-0.7-0.2-0.3-0.4-0.6-0.6-1-0.2-0.4-0.4-0.8-0.6-1.3-0.2-0.5-0.3-1-0.4-1.6C100.4 90.5 100.4 89.9 100.3 89.2zM143.8 60.3c0-0.3-0.1-0.6 0-0.9 0-0.4 0.1-0.8 0.1-1.2 0.1-0.4 0.2-0.9 0.3-1.4 0.1-0.5 0.3-1 0.6-1.5 0.2-0.5 0.5-1 0.9-1.6 0.3-0.5 0.8-1.1 1.2-1.6 0.5-0.5 1-1.1 1.6-1.5 1.2-1 2.6-1.8 4.2-2.5 1.6-0.6 3.4-1 5.2-1.1 1.8-0.1 3.7 0.2 5.5 0.8l0.4 0.1 0.1 0 0.2 0.1 0.5 0.2c0.2 0.1 0.3 0.1 0.5 0.2l0.7 0.4c1 0.5 1.7 1 2.5 1.5 1.4 1.1 2.7 2.5 3.6 3.9 0.9 1.5 1.6 3 1.9 4.4 0.2 0.7 0.3 1.5 0.4 2.2 0 0.7 0.1 1.4 0 2-0.1 0.6-0.1 1.2-0.3 1.8-0.2 0.6-0.3 1.1-0.5 1.6-0.2 0.5-0.4 0.9-0.6 1.3-0.2 0.4-0.4 0.7-0.6 1-0.4 0.6-0.8 1-1 1.3-0.3 0.3-0.4 0.4-0.4 0.4s-0.1-0.2-0.1-0.6c-0.1-0.4-0.2-0.9-0.4-1.5-0.1-0.3-0.2-0.6-0.3-1-0.1-0.3-0.3-0.7-0.4-1.1-0.3-0.7-0.7-1.5-1.1-2.2-0.5-0.7-1-1.5-1.6-2.2-0.6-0.7-1.3-1.3-1.9-1.9-0.7-0.6-1.5-1.1-2.2-1.5-0.2-0.1-0.4-0.2-0.6-0.3-0.2-0.1-0.3-0.1-0.5-0.2l-0.2-0.1c0 0-0.1 0-0.2-0.1l-0.2-0.1-0.5-0.2-0.2-0.1-0.1 0c-0.8-0.2-1.7-0.5-2.5-0.6-0.9-0.1-1.8-0.2-2.7-0.1-0.9 0.1-1.8 0.2-2.7 0.4-0.9 0.2-1.7 0.5-2.6 0.8-0.8 0.4-1.6 0.7-2.2 1.2-0.3 0.2-0.6 0.4-1 0.6-0.3 0.2-0.6 0.4-0.8 0.6-0.5 0.3-0.9 0.8-1.2 1-0.3 0.2-0.4 0.4-0.4 0.4s0-0.2-0.1-0.6C143.9 60.8 143.8 60.6 143.8 60.3zM173.7 86.9c0.2-0.5 0.5-1 0.9-1.6 0.3-0.5 0.8-1.1 1.2-1.6 0.5-0.5 1-1.1 1.6-1.5 1.2-1 2.6-1.8 4.2-2.5 1.6-0.6 3.4-1 5.2-1.1 1.8-0.1 3.7 0.2 5.5 0.8l0.4 0.1 0.1 0 0.2 0.1 0.5 0.2c0.2 0.1 0.3 0.1 0.5 0.2l0.7 0.4c1 0.5 1.7 1 2.5 1.5 1.4 1.1 2.7 2.5 3.6 3.9 0.9 1.5 1.6 3 1.9 4.4 0.2 0.7 0.3 1.5 0.4 2.2 0 0.7 0.1 1.4 0 2-0.1 0.6-0.1 1.2-0.3 1.8-0.2 0.6-0.3 1.1-0.5 1.6-0.2 0.5-0.4 0.9-0.6 1.3-0.2 0.4-0.4 0.7-0.6 1-0.4 0.6-0.8 1-1 1.3-0.3 0.3-0.4 0.4-0.4 0.4s-0.1-0.2-0.1-0.6c-0.1-0.4-0.2-0.9-0.4-1.5-0.1-0.3-0.2-0.6-0.3-1-0.1-0.3-0.3-0.7-0.4-1.1-0.3-0.7-0.7-1.5-1.1-2.2-0.5-0.7-1-1.5-1.6-2.2-0.6-0.7-1.3-1.3-1.9-1.9-0.7-0.6-1.5-1.1-2.2-1.5-0.2-0.1-0.4-0.2-0.6-0.3-0.2-0.1-0.3-0.1-0.5-0.2l-0.2-0.1c0 0-0.1 0-0.2-0.1l-0.2-0.1-0.5-0.2-0.2-0.1-0.1 0c-0.8-0.2-1.7-0.5-2.5-0.6-0.9-0.1-1.8-0.2-2.7-0.1-0.9 0.1-1.8 0.2-2.7 0.4-0.9 0.2-1.7 0.5-2.6 0.8-0.8 0.4-1.6 0.7-2.2 1.2-0.3 0.2-0.6 0.4-1 0.6-0.3 0.2-0.6 0.4-0.8 0.6-0.5 0.3-0.9 0.8-1.2 1-0.3 0.2-0.4 0.4-0.4 0.4s0-0.2-0.1-0.6c0-0.2 0-0.4-0.1-0.7 0-0.3-0.1-0.6 0-0.9 0-0.4 0.1-0.8 0.1-1.2 0.1-0.4 0.2-0.9 0.3-1.4C173.3 87.9 173.5 87.4 173.7 86.9z" fill="#ffffff" data-fill-palette-color="accent"></path></svg></g></svg></g></svg></g></svg></g></svg></g></svg></g></svg><rect width="76.64131074476381" height="95.481" fill="none" stroke="none" visibility="hidden"></rect></g></svg></g></svg>